# xmcd CD database file
#
# Track frame offsets:
#	150
#	26983
#	41033
#	53333
#	67498
#	79880
#	93305
#	106228
#	116863
#	130513
#	142568
#	155820
#	171258
#	186013
#	200233
#
# Disc length: 2848 seconds
#
# Revision: 6
# Processed by: cddbd v1.5.2PL0 Copyright (c) Steve Scherf et al.
# Submitted via: CDex 1.74
#
DISCID=d60b1e0f
DTITLE=Mahalia Jackson - Silent Night - Gospel Christmas
DYEAR=1990
DGENRE=Gospel
TTITLE0=In The Upper Room
TTITLE1=Jesus is With Me
TTITLE2=Nobody Knows The Trouble I've Seen
TTITLE3=Go Tell It On The Mountain
TTITLE4=Walk With Me
TTITLE5=He's My Light
TTITLE6=I Believe
TTITLE7=Amazing Grace
TTITLE8=It Is No Secret
TTITLE9=Come To Jesus
TTITLE10=God Spoke To Me
TTITLE11=A City Called Heaven
TTITLE12=A Child Of The King
TTITLE13=It's Real
TTITLE14=Silent night - Holy Night
EXTD=YEAR: 1990
EXTT0=
EXTT1=
EXTT2=
EXTT3=
EXTT4=
EXTT5=
EXTT6=
EXTT7=
EXTT8=
EXTT9=
EXTT10=
EXTT11=
EXTT12=
EXTT13=
EXTT14=
PLAYORDER=
